<mxfile host="app.diagrams.net" modified="2023-04-28T06:26:09.115Z" agent="5.0 (Macintosh; Intel Mac OS X 10_15_7) AppleWebKit/537.36 (KHTML, like Gecko) Chrome/109.0.0.0 Safari/537.36" etag="K5aCi2-Vwr3qwL7Ezh19" version="20.5.3" type="github">
  <diagram id="rYdwiMb5jvszhZctyrXV" name="第 1 页">
    <mxGraphModel dx="1055" dy="822" grid="0" gridSize="10" guides="1" tooltips="1" connect="1" arrows="1" fold="1" page="0" pageScale="1" pageWidth="1920" pageHeight="1200" math="0" shadow="0">
      <root>
        <mxCell id="0" />
        <mxCell id="1" parent="0" />
        <mxCell id="fc0Et_haitifpb5bSG0c-55" value="" style="rounded=0;whiteSpace=wrap;html=1;fillColor=none;dashed=1;dashPattern=1 1;" parent="1" vertex="1">
          <mxGeometry x="602" y="1607" width="630" height="659" as="geometry" />
        </mxCell>
        <mxCell id="YQscOVflWYW1QB9K6YFz-41" value="客户端（cluster模式）" style="rounded=1;whiteSpace=wrap;html=1;fillColor=#b1ddf0;strokeColor=#10739e;" parent="1" vertex="1">
          <mxGeometry x="764" y="339" width="221.5" height="72" as="geometry" />
        </mxCell>
        <mxCell id="fc0Et_haitifpb5bSG0c-1" value="redis集群" style="rounded=1;whiteSpace=wrap;html=1;" parent="1" vertex="1">
          <mxGeometry x="655" y="518" width="463" height="253" as="geometry" />
        </mxCell>
        <mxCell id="fc0Et_haitifpb5bSG0c-2" value="master0&lt;br&gt;IP:192.168.0.2" style="ellipse;whiteSpace=wrap;html=1;aspect=fixed;fillColor=#008a00;fontColor=#ffffff;strokeColor=#005700;" parent="1" vertex="1">
          <mxGeometry x="666" y="544" width="84" height="84" as="geometry" />
        </mxCell>
        <mxCell id="fc0Et_haitifpb5bSG0c-3" value="slave0&lt;br&gt;IP:192.168.0.3" style="ellipse;whiteSpace=wrap;html=1;aspect=fixed;fillColor=#008a00;fontColor=#ffffff;strokeColor=#005700;" parent="1" vertex="1">
          <mxGeometry x="668" y="669" width="84" height="84" as="geometry" />
        </mxCell>
        <mxCell id="fc0Et_haitifpb5bSG0c-4" value="master1&lt;br&gt;IP:192.168.0.4" style="ellipse;whiteSpace=wrap;html=1;aspect=fixed;fillColor=#008a00;fontColor=#ffffff;strokeColor=#005700;" parent="1" vertex="1">
          <mxGeometry x="855" y="549" width="83" height="83" as="geometry" />
        </mxCell>
        <mxCell id="fc0Et_haitifpb5bSG0c-5" value="slave1&lt;br&gt;IP:192.168.0.5" style="ellipse;whiteSpace=wrap;html=1;aspect=fixed;fillColor=#008a00;fontColor=#ffffff;strokeColor=#005700;" parent="1" vertex="1">
          <mxGeometry x="857" y="674" width="83" height="83" as="geometry" />
        </mxCell>
        <mxCell id="fc0Et_haitifpb5bSG0c-6" value="master2&lt;br&gt;IP:192.168.0.6" style="ellipse;whiteSpace=wrap;html=1;aspect=fixed;fillColor=#008a00;fontColor=#ffffff;strokeColor=#005700;" parent="1" vertex="1">
          <mxGeometry x="1003" y="549" width="83" height="83" as="geometry" />
        </mxCell>
        <mxCell id="fc0Et_haitifpb5bSG0c-7" value="slave2&lt;br&gt;IP:192.168.0.7" style="ellipse;whiteSpace=wrap;html=1;aspect=fixed;fillColor=#008a00;fontColor=#ffffff;strokeColor=#005700;" parent="1" vertex="1">
          <mxGeometry x="1005" y="674" width="84" height="84" as="geometry" />
        </mxCell>
        <mxCell id="fc0Et_haitifpb5bSG0c-8" value="redis-operator" style="rounded=1;whiteSpace=wrap;html=1;fillColor=#b1ddf0;strokeColor=#10739e;" parent="1" vertex="1">
          <mxGeometry x="1196" y="337" width="221.5" height="72" as="geometry" />
        </mxCell>
        <mxCell id="fc0Et_haitifpb5bSG0c-9" value="1&amp;nbsp;服务发现：&lt;br&gt;获取redis集群拓扑，缓存在客户端内部" style="text;html=1;strokeColor=none;fillColor=none;align=center;verticalAlign=middle;whiteSpace=wrap;rounded=0;" parent="1" vertex="1">
          <mxGeometry x="1263" y="506" width="128" height="30" as="geometry" />
        </mxCell>
        <mxCell id="fc0Et_haitifpb5bSG0c-10" value="2 计算key的哈希，确定命令转发节点：根据key的哈希值和集群拓扑确定要访问的redis节点" style="text;html=1;strokeColor=none;fillColor=none;align=center;verticalAlign=middle;whiteSpace=wrap;rounded=0;" parent="1" vertex="1">
          <mxGeometry x="1263" y="567" width="149" height="30" as="geometry" />
        </mxCell>
        <mxCell id="fc0Et_haitifpb5bSG0c-11" value="3 命令转发：与对应节点建立连接，发送命令" style="text;html=1;strokeColor=none;fillColor=none;align=center;verticalAlign=middle;whiteSpace=wrap;rounded=0;" parent="1" vertex="1">
          <mxGeometry x="1268.5" y="629" width="122" height="30" as="geometry" />
        </mxCell>
        <mxCell id="fc0Et_haitifpb5bSG0c-13" value="4 podIP网络不通，连接无法建立" style="text;html=1;strokeColor=none;fillColor=none;align=center;verticalAlign=middle;whiteSpace=wrap;rounded=0;" parent="1" vertex="1">
          <mxGeometry x="1272" y="694" width="107" height="30" as="geometry" />
        </mxCell>
        <mxCell id="fc0Et_haitifpb5bSG0c-15" value="" style="rounded=0;whiteSpace=wrap;html=1;fillColor=none;dashed=1;" parent="1" vertex="1">
          <mxGeometry x="605" y="467" width="591" height="332" as="geometry" />
        </mxCell>
        <mxCell id="fc0Et_haitifpb5bSG0c-16" value="K8s集群" style="text;html=1;strokeColor=none;fillColor=none;align=center;verticalAlign=middle;whiteSpace=wrap;rounded=0;dashed=1;" parent="1" vertex="1">
          <mxGeometry x="1127.25" y="474" width="60" height="30" as="geometry" />
        </mxCell>
        <mxCell id="fc0Et_haitifpb5bSG0c-43" style="edgeStyle=orthogonalEdgeStyle;rounded=0;orthogonalLoop=1;jettySize=auto;html=1;exitX=0.5;exitY=1;exitDx=0;exitDy=0;" parent="1" source="fc0Et_haitifpb5bSG0c-27" target="fc0Et_haitifpb5bSG0c-37" edge="1">
          <mxGeometry relative="1" as="geometry" />
        </mxCell>
        <mxCell id="fc0Et_haitifpb5bSG0c-27" value="客户端（单节点模式）" style="rounded=1;whiteSpace=wrap;html=1;fillColor=#b1ddf0;strokeColor=#10739e;" parent="1" vertex="1">
          <mxGeometry x="787.25" y="875" width="221.5" height="72" as="geometry" />
        </mxCell>
        <mxCell id="fc0Et_haitifpb5bSG0c-28" value="redis集群" style="rounded=1;whiteSpace=wrap;html=1;" parent="1" vertex="1">
          <mxGeometry x="664.25" y="1188" width="463" height="253" as="geometry" />
        </mxCell>
        <mxCell id="fc0Et_haitifpb5bSG0c-29" value="master0&lt;br&gt;IP:192.168.0.2" style="ellipse;whiteSpace=wrap;html=1;aspect=fixed;fillColor=#008a00;fontColor=#ffffff;strokeColor=#005700;" parent="1" vertex="1">
          <mxGeometry x="675.25" y="1214" width="84" height="84" as="geometry" />
        </mxCell>
        <mxCell id="fc0Et_haitifpb5bSG0c-30" value="slave0&lt;br&gt;IP:192.168.0.3" style="ellipse;whiteSpace=wrap;html=1;aspect=fixed;fillColor=#008a00;fontColor=#ffffff;strokeColor=#005700;" parent="1" vertex="1">
          <mxGeometry x="677.25" y="1339" width="84" height="84" as="geometry" />
        </mxCell>
        <mxCell id="fc0Et_haitifpb5bSG0c-31" value="master1&lt;br&gt;IP:192.168.0.4" style="ellipse;whiteSpace=wrap;html=1;aspect=fixed;fillColor=#008a00;fontColor=#ffffff;strokeColor=#005700;" parent="1" vertex="1">
          <mxGeometry x="864.25" y="1219" width="83" height="83" as="geometry" />
        </mxCell>
        <mxCell id="fc0Et_haitifpb5bSG0c-32" value="slave1&lt;br&gt;IP:192.168.0.5" style="ellipse;whiteSpace=wrap;html=1;aspect=fixed;fillColor=#008a00;fontColor=#ffffff;strokeColor=#005700;" parent="1" vertex="1">
          <mxGeometry x="866.25" y="1344" width="83" height="83" as="geometry" />
        </mxCell>
        <mxCell id="fc0Et_haitifpb5bSG0c-33" value="master2&lt;br&gt;IP:192.168.0.6" style="ellipse;whiteSpace=wrap;html=1;aspect=fixed;fillColor=#008a00;fontColor=#ffffff;strokeColor=#005700;" parent="1" vertex="1">
          <mxGeometry x="1012.25" y="1219" width="83" height="83" as="geometry" />
        </mxCell>
        <mxCell id="fc0Et_haitifpb5bSG0c-34" value="slave2&lt;br&gt;IP:192.168.0.7" style="ellipse;whiteSpace=wrap;html=1;aspect=fixed;fillColor=#008a00;fontColor=#ffffff;strokeColor=#005700;" parent="1" vertex="1">
          <mxGeometry x="1014.25" y="1344" width="84" height="84" as="geometry" />
        </mxCell>
        <mxCell id="fc0Et_haitifpb5bSG0c-35" value="" style="rounded=0;whiteSpace=wrap;html=1;fillColor=none;dashed=1;" parent="1" vertex="1">
          <mxGeometry x="618" y="979" width="573" height="481" as="geometry" />
        </mxCell>
        <mxCell id="fc0Et_haitifpb5bSG0c-36" value="K8s集群" style="text;html=1;strokeColor=none;fillColor=none;align=center;verticalAlign=middle;whiteSpace=wrap;rounded=0;dashed=1;" parent="1" vertex="1">
          <mxGeometry x="1122" y="985" width="60" height="30" as="geometry" />
        </mxCell>
        <mxCell id="fc0Et_haitifpb5bSG0c-44" style="edgeStyle=orthogonalEdgeStyle;rounded=0;orthogonalLoop=1;jettySize=auto;html=1;exitX=0.5;exitY=1;exitDx=0;exitDy=0;entryX=0.5;entryY=0;entryDx=0;entryDy=0;" parent="1" source="fc0Et_haitifpb5bSG0c-37" target="fc0Et_haitifpb5bSG0c-38" edge="1">
          <mxGeometry relative="1" as="geometry" />
        </mxCell>
        <mxCell id="fc0Et_haitifpb5bSG0c-37" value="LB&lt;br&gt;externalIP:10.0.0.2" style="rounded=1;whiteSpace=wrap;html=1;fillColor=#008a00;strokeColor=#005700;fontColor=#ffffff;" parent="1" vertex="1">
          <mxGeometry x="838" y="1008" width="120" height="60" as="geometry" />
        </mxCell>
        <mxCell id="fc0Et_haitifpb5bSG0c-46" style="edgeStyle=orthogonalEdgeStyle;rounded=0;orthogonalLoop=1;jettySize=auto;html=1;exitX=0.5;exitY=1;exitDx=0;exitDy=0;entryX=0.489;entryY=0.441;entryDx=0;entryDy=0;entryPerimeter=0;" parent="1" source="fc0Et_haitifpb5bSG0c-38" target="fc0Et_haitifpb5bSG0c-35" edge="1">
          <mxGeometry relative="1" as="geometry" />
        </mxCell>
        <mxCell id="fc0Et_haitifpb5bSG0c-38" value="proxy" style="rounded=1;whiteSpace=wrap;html=1;fillColor=#008a00;strokeColor=#005700;fontColor=#ffffff;" parent="1" vertex="1">
          <mxGeometry x="838" y="1103" width="120" height="60" as="geometry" />
        </mxCell>
        <mxCell id="fc0Et_haitifpb5bSG0c-39" value="1 LB将proxy暴露给K8s集群外的客户端使用" style="text;html=1;strokeColor=none;fillColor=none;align=center;verticalAlign=middle;whiteSpace=wrap;rounded=0;" parent="1" vertex="1">
          <mxGeometry x="970" y="1020" width="128" height="30" as="geometry" />
        </mxCell>
        <mxCell id="fc0Et_haitifpb5bSG0c-40" value="2 proxy负责key哈希和命令转发" style="text;html=1;strokeColor=none;fillColor=none;align=center;verticalAlign=middle;whiteSpace=wrap;rounded=0;" parent="1" vertex="1">
          <mxGeometry x="970" y="1126" width="175" height="30" as="geometry" />
        </mxCell>
        <mxCell id="k7kp1MV-_mNu26BSV135-15" style="edgeStyle=orthogonalEdgeStyle;rounded=0;orthogonalLoop=1;jettySize=auto;html=1;exitX=0.5;exitY=1;exitDx=0;exitDy=0;entryX=0.486;entryY=-0.005;entryDx=0;entryDy=0;entryPerimeter=0;dashed=1;" edge="1" parent="1" source="fc0Et_haitifpb5bSG0c-47" target="k7kp1MV-_mNu26BSV135-13">
          <mxGeometry relative="1" as="geometry" />
        </mxCell>
        <mxCell id="fc0Et_haitifpb5bSG0c-47" value="客户端（cluster模式）" style="rounded=1;whiteSpace=wrap;html=1;fillColor=#b1ddf0;strokeColor=#10739e;" parent="1" vertex="1">
          <mxGeometry x="787.25" y="1481" width="221.5" height="72" as="geometry" />
        </mxCell>
        <mxCell id="fc0Et_haitifpb5bSG0c-48" value="" style="rounded=1;whiteSpace=wrap;html=1;" parent="1" vertex="1">
          <mxGeometry x="654.75" y="1931.5" width="492" height="313" as="geometry" />
        </mxCell>
        <mxCell id="fc0Et_haitifpb5bSG0c-49" value="master0&lt;br&gt;addr:192.168.0.2:6379&lt;br&gt;clusterAnnounceAddr: 10.0.0.1:6379" style="ellipse;whiteSpace=wrap;html=1;aspect=fixed;fillColor=#008a00;fontColor=#ffffff;strokeColor=#005700;" parent="1" vertex="1">
          <mxGeometry x="665.75" y="1957.5" width="130" height="130" as="geometry" />
        </mxCell>
        <mxCell id="fc0Et_haitifpb5bSG0c-56" value="K8s集群" style="text;html=1;strokeColor=none;fillColor=none;align=center;verticalAlign=middle;whiteSpace=wrap;rounded=0;dashed=1;" parent="1" vertex="1">
          <mxGeometry x="1161" y="1621" width="60" height="30" as="geometry" />
        </mxCell>
        <mxCell id="fc0Et_haitifpb5bSG0c-60" value="slave0&lt;br&gt;addr:192.168.0.3:6379&lt;br&gt;clusterAnnounceAddr: 10.0.0.1:6380" style="ellipse;whiteSpace=wrap;html=1;aspect=fixed;fillColor=#008a00;fontColor=#ffffff;strokeColor=#005700;" parent="1" vertex="1">
          <mxGeometry x="665.75" y="2098.5" width="130" height="130" as="geometry" />
        </mxCell>
        <mxCell id="fc0Et_haitifpb5bSG0c-61" value="master2&lt;br&gt;addr:192.168.0.6:6379&lt;br&gt;clusterAnnounceAddr: 10.0.0.1:6579" style="ellipse;whiteSpace=wrap;html=1;aspect=fixed;fillColor=#008a00;fontColor=#ffffff;strokeColor=#005700;" parent="1" vertex="1">
          <mxGeometry x="988.5" y="1957.5" width="130" height="130" as="geometry" />
        </mxCell>
        <mxCell id="fc0Et_haitifpb5bSG0c-62" value="slave0&lt;br&gt;addr:192.168.0.7:6379&lt;br&gt;clusterAnnounceAddr: 10.0.0.1:6580" style="ellipse;whiteSpace=wrap;html=1;aspect=fixed;fillColor=#008a00;fontColor=#ffffff;strokeColor=#005700;" parent="1" vertex="1">
          <mxGeometry x="988.5" y="2098.5" width="130" height="130" as="geometry" />
        </mxCell>
        <mxCell id="fc0Et_haitifpb5bSG0c-63" value="master1&lt;br&gt;addr:192.168.0.4:6379&lt;br&gt;clusterAnnounceAddr: 10.0.0.1:6479" style="ellipse;whiteSpace=wrap;html=1;aspect=fixed;fillColor=#008a00;fontColor=#ffffff;strokeColor=#005700;" parent="1" vertex="1">
          <mxGeometry x="825.75" y="1957.5" width="130" height="130" as="geometry" />
        </mxCell>
        <mxCell id="fc0Et_haitifpb5bSG0c-64" value="slave1&lt;br&gt;Addr:192.168.0.5:6379&lt;br&gt;clusterAnnounceAddr: 10.0.0.1:6480" style="ellipse;whiteSpace=wrap;html=1;aspect=fixed;fillColor=#008a00;fontColor=#ffffff;strokeColor=#005700;" parent="1" vertex="1">
          <mxGeometry x="825.75" y="2098.5" width="130" height="130" as="geometry" />
        </mxCell>
        <mxCell id="fc0Et_haitifpb5bSG0c-65" value="redis集群" style="text;html=1;strokeColor=none;fillColor=none;align=center;verticalAlign=middle;whiteSpace=wrap;rounded=0;" parent="1" vertex="1">
          <mxGeometry x="1064.75" y="1935.5" width="60" height="30" as="geometry" />
        </mxCell>
        <mxCell id="fc0Et_haitifpb5bSG0c-66" value="1 operator创建main-sub LB service，根据externalIP和externalPort设置redis的clusterAnnounceAddr" style="text;html=1;strokeColor=none;fillColor=none;align=center;verticalAlign=middle;whiteSpace=wrap;rounded=0;" parent="1" vertex="1">
          <mxGeometry x="1252.5" y="1696" width="201.5" height="30" as="geometry" />
        </mxCell>
        <mxCell id="fc0Et_haitifpb5bSG0c-67" value="3 计算key的哈希，确定命令转发节点：根据key的哈希值和集群拓扑确定要访问的redis节点" style="text;html=1;strokeColor=none;fillColor=none;align=center;verticalAlign=middle;whiteSpace=wrap;rounded=0;" parent="1" vertex="1">
          <mxGeometry x="1282" y="1875" width="172" height="30" as="geometry" />
        </mxCell>
        <mxCell id="fc0Et_haitifpb5bSG0c-68" value="4 命令转发：与对应节点建立连接，发送命令" style="text;html=1;strokeColor=none;fillColor=none;align=center;verticalAlign=middle;whiteSpace=wrap;rounded=0;" parent="1" vertex="1">
          <mxGeometry x="1282" y="1935" width="122" height="30" as="geometry" />
        </mxCell>
        <mxCell id="fc0Et_haitifpb5bSG0c-69" value="5 clusterAnnounceAddr是客户端可访问的公网地址，建立连接成功" style="text;html=1;strokeColor=none;fillColor=none;align=center;verticalAlign=middle;whiteSpace=wrap;rounded=0;" parent="1" vertex="1">
          <mxGeometry x="1282" y="1988" width="183" height="30" as="geometry" />
        </mxCell>
        <mxCell id="fc0Et_haitifpb5bSG0c-70" value="2 服务发现：&lt;br&gt;获取redis集群拓扑，缓存在客户端内部，此时集群拓扑里的redis节点地址是公网地址，客户端可直接访问" style="text;html=1;strokeColor=none;fillColor=none;align=center;verticalAlign=middle;whiteSpace=wrap;rounded=0;" parent="1" vertex="1">
          <mxGeometry x="1263" y="1806" width="210" height="30" as="geometry" />
        </mxCell>
        <mxCell id="k7kp1MV-_mNu26BSV135-1" style="edgeStyle=orthogonalEdgeStyle;rounded=0;orthogonalLoop=1;jettySize=auto;html=1;exitX=0.5;exitY=1;exitDx=0;exitDy=0;entryX=0.5;entryY=0;entryDx=0;entryDy=0;dashed=1;" edge="1" parent="1" source="fc0Et_haitifpb5bSG0c-72" target="fc0Et_haitifpb5bSG0c-75">
          <mxGeometry relative="1" as="geometry" />
        </mxCell>
        <mxCell id="k7kp1MV-_mNu26BSV135-2" style="edgeStyle=orthogonalEdgeStyle;rounded=0;orthogonalLoop=1;jettySize=auto;html=1;exitX=0.5;exitY=1;exitDx=0;exitDy=0;dashed=1;" edge="1" parent="1" source="fc0Et_haitifpb5bSG0c-72" target="fc0Et_haitifpb5bSG0c-76">
          <mxGeometry relative="1" as="geometry">
            <Array as="points">
              <mxPoint x="896" y="1726" />
              <mxPoint x="896" y="1726" />
            </Array>
          </mxGeometry>
        </mxCell>
        <mxCell id="k7kp1MV-_mNu26BSV135-3" style="edgeStyle=orthogonalEdgeStyle;rounded=0;orthogonalLoop=1;jettySize=auto;html=1;exitX=0.5;exitY=1;exitDx=0;exitDy=0;entryX=0.5;entryY=0;entryDx=0;entryDy=0;dashed=1;" edge="1" parent="1" source="fc0Et_haitifpb5bSG0c-72" target="fc0Et_haitifpb5bSG0c-78">
          <mxGeometry relative="1" as="geometry">
            <Array as="points">
              <mxPoint x="896" y="1718" />
              <mxPoint x="1046" y="1718" />
            </Array>
          </mxGeometry>
        </mxCell>
        <mxCell id="fc0Et_haitifpb5bSG0c-72" value="main-LB&lt;br&gt;externalIP:10.0.0.1" style="rounded=1;whiteSpace=wrap;html=1;fillColor=#60a917;strokeColor=#2D7600;fontColor=#ffffff;" parent="1" vertex="1">
          <mxGeometry x="835.75" y="1636" width="120" height="60" as="geometry" />
        </mxCell>
        <mxCell id="k7kp1MV-_mNu26BSV135-4" style="edgeStyle=orthogonalEdgeStyle;rounded=0;orthogonalLoop=1;jettySize=auto;html=1;exitX=0;exitY=0.5;exitDx=0;exitDy=0;entryX=0.5;entryY=0;entryDx=0;entryDy=0;dashed=1;" edge="1" parent="1" source="fc0Et_haitifpb5bSG0c-75" target="fc0Et_haitifpb5bSG0c-49">
          <mxGeometry relative="1" as="geometry">
            <Array as="points">
              <mxPoint x="669" y="1769" />
              <mxPoint x="669" y="1901" />
              <mxPoint x="731" y="1901" />
            </Array>
          </mxGeometry>
        </mxCell>
        <mxCell id="fc0Et_haitifpb5bSG0c-75" value="sub-LB&lt;br&gt;externalPort:6379" style="rounded=1;whiteSpace=wrap;html=1;fillColor=#60a917;strokeColor=#2D7600;fontColor=#ffffff;" parent="1" vertex="1">
          <mxGeometry x="688.88" y="1739" width="120" height="60" as="geometry" />
        </mxCell>
        <mxCell id="k7kp1MV-_mNu26BSV135-9" style="edgeStyle=orthogonalEdgeStyle;rounded=0;orthogonalLoop=1;jettySize=auto;html=1;exitX=0;exitY=0.5;exitDx=0;exitDy=0;entryX=0.5;entryY=0;entryDx=0;entryDy=0;dashed=1;" edge="1" parent="1" source="fc0Et_haitifpb5bSG0c-76" target="fc0Et_haitifpb5bSG0c-63">
          <mxGeometry relative="1" as="geometry">
            <Array as="points">
              <mxPoint x="821" y="1769" />
              <mxPoint x="821" y="1900" />
              <mxPoint x="891" y="1900" />
            </Array>
          </mxGeometry>
        </mxCell>
        <mxCell id="fc0Et_haitifpb5bSG0c-76" value="sub-LB&lt;br&gt;externalPort:6479" style="rounded=1;whiteSpace=wrap;html=1;fillColor=#60a917;strokeColor=#2D7600;fontColor=#ffffff;" parent="1" vertex="1">
          <mxGeometry x="830.88" y="1739" width="120" height="60" as="geometry" />
        </mxCell>
        <mxCell id="k7kp1MV-_mNu26BSV135-11" style="edgeStyle=orthogonalEdgeStyle;rounded=0;orthogonalLoop=1;jettySize=auto;html=1;exitX=1;exitY=0.5;exitDx=0;exitDy=0;dashed=1;" edge="1" parent="1" source="fc0Et_haitifpb5bSG0c-78" target="fc0Et_haitifpb5bSG0c-61">
          <mxGeometry relative="1" as="geometry">
            <Array as="points">
              <mxPoint x="1147" y="1767" />
              <mxPoint x="1147" y="1906" />
              <mxPoint x="1054" y="1906" />
            </Array>
          </mxGeometry>
        </mxCell>
        <mxCell id="fc0Et_haitifpb5bSG0c-78" value="sub-LB&lt;br&gt;externalPort:6579" style="rounded=1;whiteSpace=wrap;html=1;fillColor=#60a917;strokeColor=#2D7600;fontColor=#ffffff;" parent="1" vertex="1">
          <mxGeometry x="986.13" y="1737" width="120" height="60" as="geometry" />
        </mxCell>
        <mxCell id="k7kp1MV-_mNu26BSV135-7" style="edgeStyle=orthogonalEdgeStyle;rounded=0;orthogonalLoop=1;jettySize=auto;html=1;exitX=0;exitY=0.5;exitDx=0;exitDy=0;entryX=0;entryY=0.5;entryDx=0;entryDy=0;dashed=1;" edge="1" parent="1" source="fc0Et_haitifpb5bSG0c-79" target="fc0Et_haitifpb5bSG0c-60">
          <mxGeometry relative="1" as="geometry">
            <Array as="points">
              <mxPoint x="633" y="1850" />
              <mxPoint x="633" y="2164" />
            </Array>
          </mxGeometry>
        </mxCell>
        <mxCell id="fc0Et_haitifpb5bSG0c-79" value="sub-LB&lt;br&gt;externalPort:6380" style="rounded=1;whiteSpace=wrap;html=1;fillColor=#60a917;strokeColor=#2D7600;fontColor=#ffffff;" parent="1" vertex="1">
          <mxGeometry x="690.88" y="1820" width="120" height="60" as="geometry" />
        </mxCell>
        <mxCell id="k7kp1MV-_mNu26BSV135-10" style="edgeStyle=orthogonalEdgeStyle;rounded=0;orthogonalLoop=1;jettySize=auto;html=1;exitX=1;exitY=0.5;exitDx=0;exitDy=0;entryX=1;entryY=0.5;entryDx=0;entryDy=0;dashed=1;" edge="1" parent="1" source="fc0Et_haitifpb5bSG0c-80" target="fc0Et_haitifpb5bSG0c-64">
          <mxGeometry relative="1" as="geometry" />
        </mxCell>
        <mxCell id="fc0Et_haitifpb5bSG0c-80" value="sub-LB&lt;br&gt;externalPort:6480" style="rounded=1;whiteSpace=wrap;html=1;fillColor=#60a917;strokeColor=#2D7600;fontColor=#ffffff;" parent="1" vertex="1">
          <mxGeometry x="832.88" y="1820" width="120" height="60" as="geometry" />
        </mxCell>
        <mxCell id="k7kp1MV-_mNu26BSV135-12" style="edgeStyle=orthogonalEdgeStyle;rounded=0;orthogonalLoop=1;jettySize=auto;html=1;exitX=1;exitY=0.5;exitDx=0;exitDy=0;entryX=1;entryY=0.5;entryDx=0;entryDy=0;dashed=1;" edge="1" parent="1" source="fc0Et_haitifpb5bSG0c-81" target="fc0Et_haitifpb5bSG0c-62">
          <mxGeometry relative="1" as="geometry">
            <Array as="points">
              <mxPoint x="1169" y="1848" />
              <mxPoint x="1169" y="2164" />
            </Array>
          </mxGeometry>
        </mxCell>
        <mxCell id="fc0Et_haitifpb5bSG0c-81" value="sub-LB&lt;br&gt;externalPort:6580" style="rounded=1;whiteSpace=wrap;html=1;fillColor=#60a917;strokeColor=#2D7600;fontColor=#ffffff;" parent="1" vertex="1">
          <mxGeometry x="988.13" y="1818" width="120" height="60" as="geometry" />
        </mxCell>
        <mxCell id="k7kp1MV-_mNu26BSV135-13" value="" style="rounded=1;whiteSpace=wrap;html=1;fillColor=none;" vertex="1" parent="1">
          <mxGeometry x="654" y="1625" width="501" height="269" as="geometry" />
        </mxCell>
        <mxCell id="k7kp1MV-_mNu26BSV135-14" value="NLB" style="text;html=1;strokeColor=none;fillColor=none;align=center;verticalAlign=middle;whiteSpace=wrap;rounded=0;" vertex="1" parent="1">
          <mxGeometry x="1070" y="1643" width="60" height="30" as="geometry" />
        </mxCell>
      </root>
    </mxGraphModel>
  </diagram>
</mxfile>
